<svg xmlns="http://www.w3.org/2000/svg" viewBox="0 0 512 512" width="512" height="512">
  <!-- viewfinder corner brackets -->
  <g fill="none" stroke="#1b1b2f" stroke-width="20" stroke-linecap="round" stroke-linejoin="round">
    <path d="M70 150 V100 a30 30 0 0 1 30 -30 H150"/>
    <path d="M362 70 H412 a30 30 0 0 1 30 30 V150"/>
    <path d="M442 362 V412 a30 30 0 0 1 -30 30 H362"/>
    <path d="M150 442 H100 a30 30 0 0 1 -30 -30 V362"/>
  </g>
  <!-- eye outline -->
  <path d="M110 256 C160 176 352 176 402 256 C352 336 160 336 110 256 Z"
        fill="#4db8e8" stroke="#1b1b2f" stroke-width="20" stroke-linejoin="round"/>
  <!-- iris -->
  <circle cx="256" cy="256" r="58" fill="#f6a02a" stroke="#1b1b2f" stroke-width="20"/>
  <!-- pupil -->
  <circle cx="256" cy="256" r="22" fill="#1b1b2f"/>
  <!-- image-gen sparkle -->
  <path d="M398 112 l10 26 l26 10 l-26 10 l-10 26 l-10 -26 l-26 -10 l26 -10 Z"
        fill="#ee4b5e" stroke="#1b1b2f" stroke-width="8" stroke-linejoin="round"/>
</svg>
